<svg xmlns="http://www.w3.org/2000/svg" width="1011" height="638" viewBox="0 0 1011 638">
  <defs>
    <clipPath id="cardFront"><rect width="1011" height="638" rx="28"/></clipPath>
  </defs>
  <g clip-path="url(#cardFront)">
    <rect width="1011" height="638" fill="#ffffff"/>

    <!-- Cabeçalho -->
    <rect width="1011" height="135" fill="#0b2c8a"/>
    <g transform="translate(44,40)">
      <path d="M30 0C13 0 0 11 0 25c0 8 5 15 13 19-1 5-3 9-7 13 7-1 13-4 17-7 2 1 5 1 7 1 17 0 30-11 30-25S47 0 30 0z" fill="#ffffff"/>
      <circle cx="30" cy="25" r="8" fill="#0b2c8a"/>
    </g>
    <text x="120" y="88" font-family="Arial, Helvetica, sans-serif" font-size="44" font-weight="700" fill="#ffffff">Faculdade Exemplo</text>

    <!-- Moldura da foto -->
    <rect x="44" y="180" width="260" height="340" rx="14" fill="#eef1f7" stroke="#cdd3e3" stroke-width="2"/>
    <g fill="#c2c9dd">
      <circle cx="174" cy="300" r="62"/>
      <path d="M84 470c0-50 40-84 90-84s90 34 90 84z"/>
    </g>

    <!-- Rodapé -->
    <rect x="0" y="566" width="1011" height="72" fill="#f1f3f8"/>
    <text x="44" y="611" font-family="Arial, Helvetica, sans-serif" font-size="27" font-weight="700" letter-spacing="2" fill="#0b2c8a">CARTEIRINHA DO ESTUDANTE</text>
  </g>
</svg>
